<svg version="1.1" xmlns="http://www.w3.org/2000/svg" xmlns:xlink="http://www.w3.org/1999/xlink" width="243.17992" height="112.10798" viewBox="0,0,243.17992,112.10798"><g transform="translate(-118.41004,-123.94601)"><g data-paper-data="{&quot;isPaintingLayer&quot;:true}" fill-rule="nonzero" stroke-linejoin="miter" stroke-miterlimit="10" stroke-dasharray="" stroke-dashoffset="0" style="mix-blend-mode: normal"><path d="M338.48041,172.97067c0,6.13477 -4.99368,11.10799 -11.1537,11.10799c-6.16002,0 -11.15371,-4.97322 -11.15371,-11.10799c0,-6.13477 4.99369,-11.10799 11.15371,-11.10799c6.16002,0 11.1537,4.97322 11.1537,11.10799z" fill="#ffe7d0" stroke="#c57e2d" stroke-width="2.5" stroke-linecap="butt"/><path d="M336.31375,136.304c0,6.13477 -4.99368,11.10799 -11.1537,11.10799c-6.16002,0 -11.1537,-4.97322 -11.1537,-11.10799c0,-6.13477 4.99368,-11.10799 11.1537,-11.10799c6.16002,0 11.1537,4.97322 11.1537,11.10799z" fill="#ffe7d0" stroke="#c57e2d" stroke-width="2.5" stroke-linecap="butt"/><path d="M210.49338,152.5894c0,12.72902 11.40408,22.7146 -1.66666,22.7146c-13.07074,0 -23.66667,-10.31892 -23.66667,-23.04793c0,-12.72902 10.59593,-23.04793 23.66667,-23.04793c13.07074,0 1.66666,10.65224 1.66666,23.38126z" fill="#c16f22" stroke="#87561f" stroke-width="2.5" stroke-linecap="butt"/><g stroke="#0010c4" stroke-width="2.5"><path d="M221.98579,212.33107c0.35616,9.42756 -3.71967,14.8091 -22.67235,14.54699c-8.46755,-0.11711 -15.33331,-6.68893 -15.33331,-14.94015c0,-8.25122 6.86496,-14.94016 15.33332,-14.94016c18.59797,0 22.28611,5.10942 22.67235,15.33332z" fill="#6395ff" stroke-linecap="butt"/><path d="M207.76643,200.2998c-2.48282,-2.02614 -5.62515,-3.23652 -9.04273,-3.23652c-8.03409,0 -14.54699,6.68894 -14.54699,14.94016c0,8.25122 6.51291,14.94016 14.54699,14.94016c3.26057,0 6.2706,-1.10172 8.6964,-2.96248" fill="none" stroke-linecap="round"/></g><path d="M159.76205,152.5894c0,12.72902 14.45107,22.71459 -2.11198,22.71459c-16.56304,0 -29.99003,-10.31892 -29.99003,-23.04793c0,-12.72902 13.42699,-23.04793 29.99003,-23.04793c16.56304,0 2.11198,10.65225 2.11198,23.38127z" fill="#e79345" stroke="#aa7335" stroke-width="2.5" stroke-linecap="butt"/><path d="M157.68464,213.07494c0,12.17674 17.11718,21.72906 -2.50162,21.72906c-19.6188,0 -35.52298,-9.87119 -35.52298,-22.04793c0,-12.17674 15.90418,-22.04793 35.52298,-22.04793c19.6188,0 2.50162,10.19007 2.50162,22.3668z" fill="#aa9a8b" stroke="#635a50" stroke-width="2.5" stroke-linecap="butt"/><g stroke-linecap="butt"><path d="M300.48041,154.97067c0,15.66848 -12.75408,28.37028 -28.48703,28.37028c-15.73296,0 -28.48704,-12.70181 -28.48704,-28.37028c0,-15.66847 12.75408,-28.37028 28.48704,-28.37028c15.73296,0 28.48703,12.70181 28.48703,28.37028z" fill="#ffe7d0" stroke="none" stroke-width="0"/><path d="M300.48041,154.97067c0,15.66848 -12.75408,28.37028 -28.48703,28.37028c-15.73296,0 -28.48704,-12.70181 -28.48704,-28.37028c0,-15.66847 12.75408,-28.37028 28.48704,-28.37028c15.73296,0 28.48703,12.70181 28.48703,28.37028z" fill="none" stroke="#c57e2d" stroke-width="2.5"/></g><g stroke="#c45500" stroke-width="2.5"><g><path d="M288.98579,211.33107c0.35616,9.42756 -3.71967,14.8091 -22.67235,14.54699c-8.46755,-0.11711 -15.33331,-6.68893 -15.33331,-14.94015c0,-8.25122 6.86495,-14.94016 15.33332,-14.94016c18.59797,0 22.28611,5.10942 22.67235,15.33332z" fill="#ffad00" stroke-linecap="butt"/><path d="M274.76643,199.2998c-2.48282,-2.02614 -5.62515,-3.23652 -9.04273,-3.23652c-8.03409,0 -14.54699,6.68894 -14.54699,14.94016c0,8.25122 6.51291,14.94016 14.54699,14.94016c3.26058,0 6.2706,-1.10172 8.6964,-2.96248" fill="none" stroke-linecap="round"/></g><path d="M263.12433,207.23033h9.02381z" fill="none" stroke-linecap="butt"/><path d="M263.12433,214.7628h9.30953z" fill="none" stroke-linecap="butt"/></g><g stroke="#39393f" stroke-width="2.5"><g><path d="M360.31913,212.99773c0.35616,9.42756 -3.71967,14.8091 -22.67235,14.54699c-8.46755,-0.11711 -15.33331,-6.68894 -15.33331,-14.94016c0,-8.25122 6.86495,-14.94016 15.33331,-14.94016c18.59797,0 22.28611,5.10942 22.67235,15.33332z" fill="#666a73" stroke-linecap="butt"/><path d="M346.09977,200.96646c-2.48282,-2.02614 -5.62515,-3.23652 -9.04273,-3.23652c-8.03409,0 -14.54699,6.68894 -14.54699,14.94016c0,8.25122 6.51291,14.94016 14.54699,14.94016c3.26058,0 6.2706,-1.10172 8.6964,-2.96248" fill="none" stroke-linecap="round"/></g><path d="M333.55962,209.17124c0,0.73863 -0.58166,1.33741 -1.29919,1.33741c-0.71753,0 -1.29919,-0.59878 -1.29919,-1.33741c0,-0.73863 0.58167,-1.3374 1.29919,-1.3374c0.71753,0 1.29919,0.59877 1.29919,1.3374z" fill="#39393f" stroke-linecap="butt"/><path d="M339.62938,209.27412c0,0.73863 -0.58167,1.3374 -1.29919,1.3374c-0.71753,0 -1.29919,-0.59877 -1.29919,-1.3374c0,-0.73863 0.58167,-1.33741 1.29919,-1.33741c0.71753,0 1.29919,0.59878 1.29919,1.33741z" fill="#39393f" stroke-linecap="butt"/><path d="M333.55962,215.65251c0,0.73863 -0.58166,1.33741 -1.29919,1.33741c-0.71753,0 -1.29919,-0.59878 -1.29919,-1.33741c0,-0.73863 0.58167,-1.3374 1.29919,-1.3374c0.71753,0 1.29919,0.59877 1.29919,1.3374z" fill="#39393f" stroke-linecap="butt"/><path d="M339.62938,215.75539c0,0.73863 -0.58167,1.33741 -1.29919,1.33741c-0.71753,0 -1.29919,-0.59878 -1.29919,-1.33741c0,-0.73863 0.58167,-1.3374 1.29919,-1.3374c0.71753,0 1.29919,0.59877 1.29919,1.3374z" fill="#39393f" stroke-linecap="butt"/><path d="M345.49338,209.377c0,0.73863 -0.58166,1.33741 -1.29919,1.33741c-0.71753,0 -1.29919,-0.59878 -1.29919,-1.33741c0,-0.73863 0.58167,-1.3374 1.29919,-1.3374c0.71753,0 1.29919,0.59877 1.29919,1.3374z" fill="#39393f" stroke-linecap="butt"/><path d="M345.49338,215.85826c0,0.73863 -0.58166,1.3374 -1.29919,1.3374c-0.71753,0 -1.29919,-0.59877 -1.29919,-1.3374c0,-0.73863 0.58167,-1.3374 1.29919,-1.3374c0.71753,0 1.29919,0.59877 1.29919,1.3374z" fill="#39393f" stroke-linecap="butt"/></g></g></g></svg>