<svg version="1.1" xmlns="http://www.w3.org/2000/svg" xmlns:xlink="http://www.w3.org/1999/xlink" width="200" height="100" viewBox="0,0,200,100">
  <g name="root" stroke-width="2.5" stroke-linecap="round">
    <g name="backpacks">
      <g name="backpack1">
        <path fill="#e79345" stroke="#00000000" d="
               M 40 5
               C 10 10 10 40 40 45
               M 40 5
               C 50 10 50 40 40 45
               
               " />
        <path fill="#00000000" stroke="#aa7335" d="
               M 40 5
               C 10 10 10 40 40 45
               M 40 5
               C 50 10 50 40 40 45
               
               " />
      </g>
      <g name="backpack2">
        <path fill="#c57e2d" stroke="#00000000" d="
               M 90 5
               C 50 10 50 40 90 45
               M 90 5
               C 100 10 100 40 90 45
                                   
               " />
        <path fill="#00000000" stroke="#87561f" d="
               M 90 5
               C 50 10 50 40 90 45
               M 90 5
               C 100 10 100 40 90 45
                                 
               " />
      </g>
      <g name="backpack3">
        <path fill="#aa9a8b" stroke="#00000000" d="
               M 40 55
               C -10 50 -10 100 40 95
               M 40 55
               C 50 60 50 90 40 95
               
               " />
        <path fill="#00000000" stroke="#635a50" d="
               M 40 55
               C -10 50 -10 100 40 95
               M 40 55
               C 50 60 50 90 40 95
                            
               " />
      </g>
    </g>
    <g name="bodyparts">
      <circle cx="125" cy="25" r="22.5" fill="#ffe7d0" />
      <circle cx="125" cy="25" r="22.5" stroke="#c57e2d" fill="#00000000" />
      <circle cx="162.5" cy="12.5" r="10" fill="#ffe7d0" />
      <circle cx="162.5" cy="12.5" r="10" fill="#00000000" stroke="#c57e2d" />
      <circle cx="162.5" cy="37.5" r="10" fill="#ffe7d0" />
      <circle cx="162.5" cy="37.5" r="10" fill="#00000000" stroke="#c57e2d" />
    </g>
    <g name="helmets">
      <g name="helmet1">
        <path fill="#1188ff" stroke="none" d="
                                              M 78 70
                                              C 78 68 75 65 70 65
                                              C 64 65 60 69 60 75
                                              C 60 81 64 85 70 85
                                              C 75 85 78 83 78 80
                                              "/>
        <path fill="#1188ff" stroke="none" d="
                                              M 75.15 66
                                              L 80 66
                                              C 90 66 90 84 80 84
                                              L 75.15 84
                                              " />
        <path fill="none" stroke="#1111cc" d="
                                              M 78 70
                                              C 78 68 75 65 70 65
                                              C 64 65 60 69 60 75
                                              C 60 81 64 85 70 85
                                              C 75 85 78 83 78 80
                                              M 75.15 66
                                              L 80 66
                                              C 90 66 90 84 80 84
                                              L 75.15 84
                                              "/>
      </g>
      <g name="helmet2">
        <path fill="#ff8811" stroke="none" d="
                                              M 128 70
                                              C 128 68 125 65 120 65
                                              C 114 65 110 69 110 75
                                              C 110 81 114 85 120 85
                                              C 125 85 128 83 128 80
                                              "/>
        <path fill="#ff8811" stroke="none" d="
                                              M 125.15 66
                                              L 130 66
                                              C 140 66 140 84 130 84
                                              L 125.15 84
                                              " />
        <path fill="none" stroke="#cc4411" d="
                                              M 128 70
                                              C 128 68 125 65 120 65
                                              C 114 65 110 69 110 75
                                              C 110 81 114 85 120 85
                                              C 125 85 128 83 128 80
                                              M 125.15 66
                                              L 130 66
                                              C 140 66 140 84 130 84
                                              L 125.15 84
                                              "/>
        <path fill="#cc4411" stroke="#cc4411" d="
                                              M 110.5 74.25
                                              L 117.5 74.75
                                              L 117.5 75.25
                                              L 110.5 75.75
                                              Z
                                              " />
      </g>
      <g name="helmet3">
        <path fill="#555555" stroke="none" d="
                                              M 178 70
                                              C 178 68 175 65 170 65
                                              C 164 65 160 69 160 75
                                              C 160 81 164 85 170 85
                                              C 175 85 178 83 178 80
                                              "/>
        <path fill="#555555" stroke="none" d="
                                              M 175.15 66
                                              L 180 66
                                              C 190 66 190 84 180 84
                                              L 175.15 84
                                              " />
        <path fill="none" stroke="#222222" d="
                                              M 178 70
                                              C 178 68 175 65 170 65
                                              C 164 65 160 69 160 75
                                              C 160 81 164 85 170 85
                                              C 175 85 178 83 178 80
                                              M 175.15 66
                                              L 180 66
                                              C 190 66 190 84 180 84
                                              L 175.15 84
                                              "/>
      </g>
      <circle cx="166" cy="72" r="1.5" fill="#222222" />
      <circle cx="170" cy="72" r="1.5" fill="#222222" />
      <circle cx="174" cy="72" r="1.5" fill="#222222" />
      <circle cx="166" cy="77" r="1.5" fill="#222222" />
      <circle cx="170" cy="77" r="1.5" fill="#222222" />
      <circle cx="174" cy="77" r="1.5" fill="#222222" />
    </g>
  </g>
</svg>