<svg version="1.1" xmlns="http://www.w3.org/2000/svg" xmlns:xlink="http://www.w3.org/1999/xlink" width="67.73073" height="90.06322" viewBox="0,0,67.73073,90.06322"><g transform="translate(-206.13464,-134.96836)"><g data-paper-data="{&quot;isPaintingLayer&quot;:true}" fill-rule="nonzero" stroke-linecap="butt" stroke-linejoin="miter" stroke-miterlimit="10" stroke-dasharray="" stroke-dashoffset="0" style="mix-blend-mode: normal"><path d="M218.45728,223.56723c-6.13474,-0.01944 -11.09211,-5.02886 -11.07258,-11.18885c0.01952,-6.15999 5.00855,-11.13789 11.14329,-11.11845c6.13474,0.01944 11.09211,5.02887 11.07258,11.18886c-0.01952,6.15999 -5.00855,11.13788 -11.14329,11.11844z" fill="#ffe7d0" stroke="#c57e2d" stroke-width="2.5"/><path d="M261.47202,223.78158c-6.13474,-0.01944 -11.09211,-5.02886 -11.07258,-11.18885c0.01952,-6.15999 5.00855,-11.13788 11.14329,-11.11844c6.13474,0.01944 11.09211,5.02886 11.07258,11.18885c-0.01952,6.15999 -5.00855,11.13788 -11.14329,11.11844z" fill="#ffe7d0" stroke="#c57e2d" stroke-width="2.5"/><path d="M240.3765,161.55062c-12.72896,-0.04035 -22.75063,11.33203 -22.7092,-1.73865c0.04143,-13.07067 10.39388,-23.63384 23.12283,-23.5935c12.72896,0.04035 23.01423,10.66893 22.9728,23.7396c-0.04143,13.07067 -10.65747,1.63289 -23.38643,1.59254z" fill="#c16f22" stroke="#87561f" stroke-width="2.5"/><g><path d="M239.74832,212.34891c-15.6684,-0.04966 -28.32971,-12.84394 -28.27985,-28.57681c0.04987,-15.73288 12.79204,-28.44664 28.46043,-28.39698c15.66839,0.04966 28.32971,12.84394 28.27985,28.57682c-0.04987,15.73288 -12.79204,28.44663 -28.46043,28.39697z" fill="#ffe7d0" stroke="none" stroke-width="0"/><path d="M239.74832,212.34891c-15.6684,-0.04966 -28.32971,-12.84394 -28.27985,-28.57681c0.04987,-15.73288 12.79204,-28.44664 28.46043,-28.39698c15.66839,0.04966 28.32971,12.84394 28.27985,28.57682c-0.04987,15.73288 -12.79204,28.44663 -28.46043,28.39697z" fill="none" stroke="#c57e2d" stroke-width="2.5"/></g></g></g></svg>